<?xml version="1.0" encoding="utf-8"?>
<!-- Generator: Adobe Illustrator 22.0.1, SVG Export Plug-In . SVG Version: 6.00 Build 0)  -->
<svg version="1.1" id="图层_1" xmlns="http://www.w3.org/2000/svg" xmlns:xlink="http://www.w3.org/1999/xlink" x="0px" y="0px"
	 viewBox="0 0 250 250" style="enable-background:new 0 0 250 250;" xml:space="preserve">
<style type="text/css">
	.st0{fill:#FFFFFF;stroke:#000000;stroke-width:9;stroke-miterlimit:10;}
	.st1{fill:#FFFFFF;stroke:#000000;stroke-width:9;stroke-linejoin:round;stroke-miterlimit:10;}
	.st2{stroke:#000000;stroke-miterlimit:10;}
</style>
<path class="st0" d="M190.4,202.4H59.6c-6.6,0-12-5.4-12-12V59.6c0-6.6,5.4-12,12-12h130.8c6.6,0,12,5.4,12,12v130.8
	C202.4,197,197,202.4,190.4,202.4z"/>
<rect x="27.3" y="63.3" class="st1" width="20.3" height="12.7"/>
<rect x="27.3" y="99.8" class="st1" width="20.3" height="12.7"/>
<rect x="27.3" y="136.2" class="st1" width="20.3" height="12.7"/>
<rect x="27.3" y="172.7" class="st1" width="20.3" height="12.7"/>
<rect x="202.4" y="62.3" class="st1" width="20.3" height="12.7"/>
<rect x="202.4" y="98.8" class="st1" width="20.3" height="12.7"/>
<rect x="202.4" y="135.2" class="st1" width="20.3" height="12.7"/>
<rect x="202.4" y="171.7" class="st1" width="20.3" height="12.7"/>
<rect x="58.8" y="31.1" transform="matrix(4.491347e-11 -1 1 4.491347e-11 31.4823 106.399)" class="st1" width="20.3" height="12.7"/>
<rect x="95.3" y="31.1" transform="matrix(4.491347e-11 -1 1 4.491347e-11 67.9267 142.8434)" class="st1" width="20.3" height="12.7"/>
<rect x="131.7" y="31.1" transform="matrix(4.482376e-11 -1 1 4.482376e-11 104.3712 179.2878)" class="st1" width="20.3" height="12.7"/>
<rect x="168.1" y="31.1" transform="matrix(4.491347e-11 -1 1 4.491347e-11 140.8156 215.7323)" class="st1" width="20.3" height="12.7"/>
<rect x="60.2" y="206.2" transform="matrix(4.491347e-11 -1 1 4.491347e-11 -142.2083 282.875)" class="st1" width="20.3" height="12.7"/>
<rect x="96.7" y="206.2" transform="matrix(4.491347e-11 -1 1 4.491347e-11 -105.7639 319.3195)" class="st1" width="20.3" height="12.7"/>
<rect x="133.1" y="206.2" transform="matrix(4.473406e-11 -1 1 4.473406e-11 -69.3194 355.7639)" class="st1" width="20.3" height="12.7"/>
<rect x="169.5" y="206.2" transform="matrix(4.491347e-11 -1 1 4.491347e-11 -32.875 392.2083)" class="st1" width="20.3" height="12.7"/>
<g>
	<path class="st2" d="M57,117.9l0.9-5c1.6-9,7.4-24,17.5-44.9h8.1c2.7,20.9,3.2,35.9,1.6,44.9l-0.9,5h-8.2l0.9-5
		c0.3-1.7,0.6-3.6,0.7-5.8H67.4c-0.6,2.2-1,4.1-1.4,5.8l-0.9,5H57z M78.1,99.9c0.2-6,0-13.1-0.4-21.4c-3.4,8.3-6.2,15.4-8.2,21.4
		H78.1z"/>
	<path class="st2" d="M105.6,118.4c-2.2,0-4.3-0.4-6.4-1.2c-2-0.8-3.6-2.1-4.9-3.9s-1.8-3.8-1.8-6l7.9-1.1c-0.1,0.9,0,1.8,0.5,2.6
		c0.5,0.8,1.1,1.4,2,1.8c0.9,0.4,1.8,0.5,2.7,0.5c1,0,2-0.2,3-0.7s1.8-1.2,2.5-2.1c0.6-0.9,1-1.9,1.2-3c0.4-2.3-0.1-4.2-1.6-5.9
		c-1.5-1.7-3.1-3.1-4.8-4.3c-1.7-1.2-3.3-2.5-4.7-4c-1.4-1.5-2.4-3.4-3.1-5.4c-0.7-2.1-0.8-4.3-0.4-6.5c0.3-1.6,0.8-3.2,1.7-4.8
		c0.9-1.5,2-2.9,3.4-4c1.4-1.1,2.9-1.9,4.6-2.4c1.7-0.5,3.3-0.7,4.9-0.7c2.2,0,4.3,0.4,6.4,1.2c2,0.8,3.6,2.1,4.9,3.9s1.8,3.8,1.8,6
		l-7.9,1.1c0.1-0.9,0-1.8-0.5-2.6c-0.5-0.8-1.1-1.4-2-1.8c-0.9-0.4-1.8-0.5-2.7-0.5c-1,0-2,0.2-3,0.7s-1.8,1.2-2.5,2.1
		c-0.6,0.9-1,1.9-1.2,3c-0.4,2.3,0.1,4.2,1.6,5.9c1.5,1.7,3,3.1,4.8,4.3c1.7,1.2,3.3,2.5,4.7,4c1.4,1.5,2.4,3.4,3.1,5.4
		c0.7,2.1,0.8,4.3,0.4,6.5c-0.3,1.6-0.8,3.2-1.7,4.8c-0.9,1.5-2,2.9-3.4,4c-1.4,1.1-2.9,1.9-4.6,2.4
		C108.9,118.2,107.2,118.4,105.6,118.4z"/>
	<path class="st2" d="M129.9,117.9v-7.2h6l6.3-35.6h-5v-7.2h19v7.2h-6l-6.3,35.6h5v7.2H129.9z"/>
	<path class="st2" d="M174.8,118.4c-1.7,0-3.4-0.2-5-0.6c-1.6-0.4-3.1-1.1-4.4-2c-1.3-1-2.3-2.1-3.1-3.6c-0.8-1.4-1.2-3-1.4-4.7
		c-0.1-1.7,0-3.4,0.3-5.1l3.9-22c0.3-1.8,0.9-3.5,1.7-5.1c0.8-1.7,1.9-3.1,3.4-4.4c1.5-1.3,3-2.2,4.8-2.8c1.7-0.6,3.5-0.9,5.3-0.9
		c2.2,0,4.4,0.4,6.4,1.2c2,0.8,3.7,2.1,4.9,3.9c1.2,1.8,1.9,3.8,1.9,6l-7.9,1.4c0.1-1,0-1.9-0.5-2.8c-0.5-0.8-1.2-1.5-2-1.9
		c-0.9-0.4-1.8-0.6-2.8-0.6c-1.2,0-2.3,0.3-3.5,1c-1.1,0.7-2,1.6-2.6,2.7c-0.6,1.1-1,2.3-1.2,3.5l-3.9,22c-0.2,1-0.2,1.9-0.1,2.9
		s0.4,1.8,1,2.5c0.5,0.7,1.2,1.3,2.1,1.6c0.9,0.3,1.8,0.5,2.7,0.5c1,0,2-0.2,3-0.6c1-0.4,1.8-1,2.5-1.8c0.7-0.8,1.3-1.7,1.7-2.6
		l7.3,2.8c-0.9,1.9-2.1,3.5-3.6,5.1c-1.5,1.5-3.2,2.6-5.1,3.4C178.6,118.1,176.7,118.4,174.8,118.4z"/>
	<path class="st2" d="M58.7,181.9l8.8-50H93l-1.2,7.2H74.3l-2.1,12.2h13.3l-1.3,7.2H70.9l-4.1,23.4H58.7z"/>
	<path class="st2" d="M91,181.9l0.9-5c1.6-9,7.4-24,17.5-44.9h8.1c2.7,20.9,3.2,35.9,1.6,44.9l-0.9,5h-8.2l0.9-5
		c0.3-1.7,0.6-3.6,0.7-5.8h-10.3c-0.6,2.2-1,4.1-1.4,5.8l-0.9,5H91z M112.1,163.9c0.2-6,0-13.1-0.4-21.4c-3.4,8.3-6.2,15.4-8.2,21.4
		H112.1z"/>
	<path class="st2" d="M125,181.9l8.8-50h2.7h5.8l5.4,37.5c0-0.9,0.1-1.7,0.1-2.6c0.1-5,0.6-10,1.5-15l3.5-20h8.1l-8.8,50h-2.7h-5.9
		l-5.4-37.5c0,0.8-0.1,1.7-0.1,2.5c-0.1,5-0.6,10-1.5,15l-3.5,20H125z"/>
	<path class="st2" d="M173.6,182.4c-2.2,0-4.3-0.4-6.4-1.2c-2-0.8-3.6-2.1-4.9-3.9c-1.2-1.8-1.8-3.8-1.8-6l7.9-1.1
		c-0.1,0.9,0,1.8,0.5,2.6c0.5,0.8,1.1,1.4,2,1.8c0.9,0.4,1.8,0.5,2.7,0.5c1,0,2-0.2,3-0.7c1-0.5,1.8-1.2,2.5-2.1
		c0.6-0.9,1-1.9,1.2-3c0.4-2.3-0.1-4.2-1.6-5.9c-1.5-1.7-3.1-3.1-4.8-4.3c-1.7-1.2-3.3-2.5-4.7-4c-1.4-1.5-2.4-3.4-3.1-5.4
		c-0.7-2.1-0.8-4.3-0.4-6.5c0.3-1.6,0.8-3.2,1.7-4.8c0.9-1.5,2-2.9,3.4-4c1.4-1.1,2.9-1.9,4.6-2.4c1.7-0.5,3.3-0.7,4.9-0.7
		c2.2,0,4.3,0.4,6.4,1.2c2,0.8,3.6,2.1,4.9,3.9c1.2,1.8,1.8,3.8,1.8,6l-7.9,1.1c0.1-0.9,0-1.8-0.5-2.6c-0.5-0.8-1.1-1.4-2-1.8
		c-0.9-0.4-1.8-0.5-2.7-0.5c-1,0-2,0.2-3,0.7c-1,0.5-1.8,1.2-2.5,2.1c-0.6,0.9-1,1.9-1.2,3c-0.4,2.3,0.1,4.2,1.6,5.9
		c1.5,1.7,3,3.1,4.8,4.3c1.7,1.2,3.3,2.5,4.7,4c1.4,1.5,2.4,3.4,3.1,5.4c0.7,2.1,0.8,4.3,0.4,6.5c-0.3,1.6-0.8,3.2-1.7,4.8
		s-2,2.9-3.4,4c-1.4,1.1-2.9,1.9-4.6,2.4C176.9,182.2,175.2,182.4,173.6,182.4z"/>
</g>
</svg>
